<svg xmlns="http://www.w3.org/2000/svg" xmlns:xlink="http://www.w3.org/1999/xlink" width="864" height="528"><defs><linearGradient id="a"><stop offset="0" stop-color="#fff" stop-opacity="0"/><stop offset="0.77229363" stop-color="#e4edb2" stop-opacity=".49803922"/><stop offset="1" stop-color="#bfd73e"/></linearGradient><radialGradient id="b" cx="585.16827" cy="262.41879" r="142.11681" fx="585.16827" fy="262.41879" gradientTransform="matrix(.91509 -.00763 .00493 .92407 49.201632 19.764039)" gradientUnits="userSpaceOnUse" spreadMethod="pad" xlink:href="#a"/></defs><g fill-opacity=".99754902"><path fill="#b3d88c" d="M586.75391 38.298828c-98.98497.000737-179.22799 101.018702-179.22852 225.630862-.00032 124.61292 80.25687 225.92448 179.24244 225.92522 98.98634.00061 179.21687-101.31134 179.21655-225.92522-.00053-124.61312-80.24474-225.631481-179.23047-225.630862zm.0332 1.94336c97.94174-.000446 177.3395 100.242302 177.33984 223.898432.00052 123.6569-79.39749 223.90085-177.33984 223.9004-97.94235.00045-177.34036-100.2435-177.33984-223.9004.00034-123.65613 79.3981-223.898878 177.33984-223.898432z" paint-order="stroke fill markers"/><path fill="#b4d88c" d="M588.91102 93.208591c-124.783.000578-225.93941 80.263129-225.94009 179.272159-.00041 99.00964 101.15632 179.27314 225.94009 179.27372 124.78472.00049 225.94293-80.26333 225.94252-179.27372-.00068-99.00978-101.15857-179.272645-225.94252-179.272159zm.002 1.957594c123.46827-.000285 223.59855 79.232775 223.599 177.482155.00065 98.25004-100.14621 177.17355-223.61485 177.1732-123.46864.00036-223.50412-78.92316-223.50347-177.1732.00045-98.24943 100.05191-177.482515 223.51979-177.482155z" paint-order="stroke fill markers"/><path fill="#b3d88c" d="M588.91102 93.208591c-124.783.000578-225.93941 80.263129-225.94009 179.272159-.00041 99.00964 101.15632 179.27314 225.94009 179.27372 124.78472.00049 225.94293-80.26333 225.94252-179.27372-.00068-99.00978-101.15857-179.272645-225.94252-179.272159zm.002 1.957594c123.46827-.000285 223.59855 79.232775 223.599 177.482155.00065 98.25004-100.14621 177.17355-223.61485 177.1732-123.46864.00036-223.50412-78.92316-223.50347-177.1732.00045-98.24943 100.05191-177.482515 223.51979-177.482155z" paint-order="stroke fill markers"/><path fill="#b3d88c" d="M588.74547 215.88014c-124.52971.00016-225.44145 22.19228-225.44212 49.2762-.00041 27.08408 100.95101 49.04017 225.4815 49.04033 124.53146.00012 225.48435-21.95604 225.48394-49.04033-.00067-27.08413-100.99263-49.27633-225.52332-49.2762zm-.0235 1.23533c123.21767-.00008 223.90556 21.14639 223.90602 48.02251.00065 26.87629-100.83098 47.94684-224.04903 47.94673-123.21803.00011-223.50695-21.01068-223.5063-47.88698.00046-26.87612 100.43248-48.08236 223.64978-48.08226z" paint-order="stroke fill markers"/><path fill="#b3d88c" d="M588.78485 158.7772c-124.52971.00036-225.64792 50.43095-225.64859 112.64031-.00041 62.20975 101.1181 112.64094 225.64859 112.64131 124.53146.00027 225.64188-50.66737 225.64147-112.87761-.00067-62.20984-101.11078-112.4043-225.64147-112.40401zm.0206 1.54278c123.21767-.00018 223.82202 49.28391 223.82248 111.01598.00065 61.73248-100.75221 111.24837-223.97026 111.24812-123.21803.00025-223.64142-49.50611-223.64077-111.23858.00046-61.73209 100.57172-111.02575 223.78902-111.02552z" paint-order="stroke fill markers"/><path fill="#b3d88c" d="M587.73667 37.938267c-62.27059.000729-112.75078 101.251183-112.75111 226.150163-.00021 124.89973 50.48015 226.15139 112.75111 226.15212 62.27146.00062 112.75257-101.25145 112.75237-226.15212-.00034-124.89992-50.48128-226.150777-112.75237-226.150163zm.0159 2.399866c61.61452-.000359 111.01175 99.965317 111.01197 223.905997.00033 123.94152-49.4191 223.55849-111.0338 223.55804-61.61465.00046-110.94472-99.71835-110.9444-223.65987.00022-123.94075 49.35195-223.804621 110.96626-223.804167z" paint-order="stroke fill markers"/><path fill="#b3d88c" d="M594.04456 38.292716c-27.1414.000729-49.10443 100.896734-49.10457 225.795714-.00009 124.89973 21.94669 225.62228 49.08825 225.62301 27.14177.00062 49.20028-100.72234 49.20019-225.62301-.00015-124.89992-22.04227-225.796328-49.18387-225.795714zm.0186 1.683392c26.85544-.000359 47.98046 100.209192 47.98055 224.149872.00015 123.94152-21.22486 223.91294-48.08037 223.91249-26.85549.00046-47.92338-100.03342-47.92325-223.97494.0001-123.94075 21.16773-224.087876 48.02308-224.087422z" paint-order="stroke fill markers"/></g><ellipse cx="585.97516" cy="257.79385" fill="url(#b)" paint-order="stroke fill markers" rx="142.2737" ry="138.52838" transform="skewY(.99839) scale(.99985 1)"/><path fill="#0e467a" d="M147.68 462.85402c-7.15274-1.58682-12.03563-6.39591-13.94469-13.73402-.85904-3.30198-.94415-8.9863-.17967-12 1.88092-7.41494 7.03928-12.6991 14.28436-14.6327 4.24114-1.24237 12.75264-.79916 15.66868.99684-.34561 1.01148-.31672.98156-.84906 2.38241-.36142-.0917-2.08362-.7821-3.13962-1.06626-2.63186-.70823-8.04359-.73008-10.72-.0433-6.39058 1.63987-10.70244 5.94807-12.37347 12.36301-.35587 1.36614-.5376 3.2881-.52951 5.6.0202 5.77805 1.38166 9.64685 4.60878 13.09667 2.8635 3.06106 6.26271 4.59376 11.35782 5.12115 2.32483.24068 7.42189-.32674 8.96074-.92739l1.09564-.45776V445.138h-9.42v-2.372h12.31s-.0575 12.24396 0 18.36593l-.88499.34221c-4.32648 1.67293-11.98964 2.32378-16.245 1.37978zm324.8-.0214c-7.10768-1.50842-12.04384-6.37671-13.92557-13.73421-.80349-3.14157-.87437-9.32256-.13929-12.14471 1.25529-4.81939 3.963-8.94921 7.44534-11.35571 2.97638-2.05683 4.41548-2.6099 7.43711-3.33157 8.90444-1.94586 15.22893 1.24914 15.22893 1.24914l-.94439 2.47658s-2.20613-.90752-3.26213-1.19168c-3.1647-.85162-8.0655-.73085-11.4879.28304-1.56637.46403-3.36636 1.15211-4 1.52905-1.52886.90949-4.02122 3.30151-5.19332 4.98429-3.9206 5.62883-3.99043 16.15523-.14588 22.00333 2.89356 4.40157 7.02134 6.70128 13.17072 7.33782 2.32483.24067 7.42969-.28768 8.96073-.92739l1.09565-.4578V445.16h-9.52v-2.54h12.472s.27303 18.00419 0 18.44592c-.23673.38307-4.62019 1.57107-7.112 1.96256-2.90035.45568-7.42394.36775-10.08-.19593zM44.153862 422.04113l20.505255-.05813.05863 2.697-17.174747.14287V440.254h16.016v2.616H47.543v17.599h17.889v2.591H44.229zM84.811 421.983h2.858l23.089 36.25v-36.25h2.886v41.077h-2.886l-23.089-35.54015V463.06h-2.858s.04837-27.39811 0-41.077zm100.644 41.077v-41.077h2.845v41.077zm24.955 0v-41.077h2.796l23.059 35.828v-35.828h2.974v41.077h-2.974l-23.059-36.02613V463.06zm50.774 0v-41.077h20.248v2.697h-17.383v15.574h16.311v2.616h-16.311v17.599h18.332v2.591zm40.336-41.077h20.22v2.697h-17.285v15.574h16.325v2.295l-16.325.171v17.67995l18.246.0691V463.06l-21.181.00005zm40.436 41.077v-40.877s2.26908-.30975 5.06131-.34416c9.21026-.6042 14.1409 1.31212 16.36451 5.85708 1.02832 2.1018 1.3729 5.42032.8025 7.72855-.58749 2.37734-2.32579 4.74237-4.53542 6.17049-.75046.61437-2.37716 1.60312-2.37716 1.60312s.48696.18073 1.77819 1.24841c2.58969 2.69296 2.5554 2.80083 4.51655 10.48319 2.0096 7.87216 2.44506 8.13032 2.44506 8.13032H362.812s-.79101-2.99732-1.39952-5.51764c-2.25085-9.32298-2.9711-10.76884-6.13565-12.31709-1.62205-.79363-2.22994-.68895-5.83483-.80127-3.09859.01-4.662.12684-4.662.12684V463.06zm14.45341-22.07937c2.0232-.8953 4.26953-3.26074 4.81017-5.06522.57213-1.90953.46493-5.13846-.2207-6.64784-.88182-1.94131-3.12334-4.01435-5.55469-4.48131-5.1725-.99342-10.66419-.14226-10.66419-.14226-.0166 5.64119 0 17.09308 0 17.09308s2.5.18694 5.14.11747c4.16598-.10963 5.02314-.22506 6.48941-.87392zM384.624 463.06v-41.077h2.912v41.077zm24.936-41.077h2.667l23.253 35.837v-35.837h2.899v41.077h-2.899l-23.253-35.54045V463.06h-2.667zm171.88 5.65105c-15.3049-.51581-30.89286-3.18992-44.20746-7.58378-15.54243-5.12902-31.2536-13.56208-42.90915-23.03177-8.09933-6.58039-15.25635-13.59908-21.75904-21.3385-2.59779-3.09187-9.13158-11.73104-9.69251-12.81574-.26854-.51933-.59891-.94426-.73414-.94426-.13524 0-1.89533 1.98-3.9113 4.4-2.016 2.42-5.82566 6.61347-8.46592 9.31882-8.40829 8.61552-11.48086 11.09548-22.88048 18.46752-3.70717 2.39737-12.63248 5.60496-17.68294 6.35488-5.03626.7478-17.35472.49849-20.81754-.42132-6.35453-1.68793-10.16742-5.32729-12.11107-11.5599-.67536-2.16563-.74787-2.99376-.74243-8.48.008-7.95766 1.03433-14.6784 4.02102-26.32675.68912-2.68771 1.25296-4.95571 1.25296-5.04 0-.63399-1.20883.55181-5.47091 5.36675-8.77383 9.91194-20.01315 20.7448-27.96909 26.95766-15.30192 11.94941-29.29893 18.29543-43.36 19.65869-4.29685.41661-14.3949.41709-17.92 0-10.99153-1.29776-20.87248-7.37942-28.19941-17.35654-2.07107-2.82019-5.13357-8.64531-6.38286-12.14071-.4246-1.188-.91787-2.16-1.09615-2.16-.17827 0-1.99146 1.836-4.02931 4.08-13.16661 14.49856-28.05131 24.29498-41.26086 27.15597-3.8392.83152-18.86339.84343-22.19927.0176-9.06617-2.24441-13.63321-8.89661-13.63175-19.85552.00096-6.1247 1.43046-15.22701 4.01637-25.57152.78278-3.13142 1.42324-5.83142 1.42324-6 0-.77158-.82488.009-4.66448 4.41344-5.21257 5.97952-17.99437 18.80659-23.01552 23.09703-17.59888 15.03779-32.93181 22.65424-48.96 24.32028-3.996419.4154-14.093424.41556-17.92.00026-9.563827-1.03798-18.569798-5.94499-25.506493-13.89757-10.817001-12.40115-14.719389-29.59622-12.225929-53.87113 4.14784-40.38105 29.62112-89.40165 62.175952-119.65099 21.99337-20.43582 43.33909-32.21339 62.74808-34.62145 4.38532-.54409 14.7988-1.43386 23.392.17098 11.21949 2.09532 19.36491 7.60379 25.18266 17.73259.85927 1.496 1.68971 2.72 1.84543 2.72.15572 0 1.34034-3.024 2.63247-6.72 1.29214-3.696 2.5218-6.89359 2.73259-7.10576.43402-.43687 3.35744-.92321 27.53982-4.58152 9.48012-1.43415 17.34956-2.48721 17.48763-2.34014.13807.14801-10.1105 36.26835-22.77461 80.26835-17.1468 59.57463-23.79521 83.14944-26.03978 92.33542-1.65777 6.78448-3.15234 13.31136-3.32127 14.50416-.32863 2.32058-.067 4.805.69822 6.63149.5655 1.34967 2.07004 3.16893 2.62074 3.16893.89502 0 6.10134-4.10272 9.4864-7.47555 4.29527-4.27975 8.8092-9.62515 14.4732-17.13917l4.20218-5.57472.37673-5.78528c.91113-13.99171 3.20053-25.42511 7.95052-39.70528 10.25806-30.83938 29.63423-62.01574 52.20689-84.00115 22.60709-19.59649 52.08935-41.75795 82.92467-38.2605 4.43313.48144 6.35041 1.09127 9.45676 2.04106 6.50784 1.98983 10.6826 4.32164 15.0657 8.41499 2.32198 2.16847 6.09792 7.36764 7.12141 9.8056.61993 1.47663 1.23689 1.30228 1.69865-.48.21658-.836.72048-2.384 1.11981-3.44.39933-1.056 1.17875-3.38869 1.73207-5.18375.55331-1.79507 1.12265-3.33582 1.26518-3.42391.14253-.0881 5.00061-.88777 10.79571-1.77708 5.79514-.88931 13.56061-2.10691 17.25661-2.70578 3.696-.59886 8.67958-1.32422 11.07462-1.61192 2.39504-.28769 4.864-.60573 5.4866-.70676 1.06019-.17204 1.94353-.25651 1.94353-.25651s-.49748 1.55415-.60674 1.91223l-.25357.83108c-.42483.74852-11.86186 40.29448-25.66241 88.58736-3.87094 13.54572-3.73971 12.42406-2.37916 20.33504 3.43756 19.9881 12.2631 41.03587 23.44163 55.90522 11.08733 14.74803 25.97667 26.92668 44.07555 36.05132 6.78781 3.42212 12.69136 6.01879 12.99453 5.71559.10525-.10525-.9056-1.46051-2.24634-3.01175-13.26912-15.35235-19.27613-35.72566-17.83885-60.50208.7761-13.37881 2.26836-22.25738 5.79488-34.4783 2.81604-9.75869 5.95309-17.67356 11.09789-28 6.30762-12.6605 11.85031-21.45407 21.28055-33.76197.94476-1.23309 3.67913-4.47309 6.07632-7.2 14.92848-16.98175 34.6408-32.15443 55.48102-42.70407 20.74675-10.50234 39.43142-15.20611 60.42666-15.21214 4.93289-.001 6.31763-.0909 6.21632-.40182-.21482-.6593-6.83242-5.54263-11.28298-8.32609-35.55344-22.23571-86.5248-28.49097-126.56-15.53158-12.07066 3.90728-26.97954 11.68671-34.93372 17.7985-12.63098 8.784-23.4157 21.9927-25.98189 24.73677l.25357-.83108c14.87324-18.14307 29.17455-27.71953 34.902-31.19102 14.33414-9.45534 27.81133-15.61395 44.8-20.47203 5.0928-1.45635 13.87011-3.09844 21.6-4.04102 5.68128-.69278 21.40307-.97826 27.59725-.50113 27.34653 2.10647 52.96928 11.06126 75.22771 26.29101 2.43376 1.66522 4.97574 3.38767 5.64893 3.82767 1.33395.87191 7.48473 5.99907 10.78822 8.99284 1.37578 1.24678 2.51859 1.99176 3.40442 2.21931 18.80128 4.82943 31.19974 17.09631 33.69168 33.33405.588 3.83148.44688 10.00304-.32787 14.33688-1.12052 6.26809-3.70237 12.1174-7.66944 17.37545-3.29085 4.36181-4.48436 5.52182-9.0009 8.74855-5.668 4.04936-9.07264 5.27061-14.84502 5.32497-4.86138.0458-9.29351-1.00181-13.52938-3.19786-5.65722-2.93294-10.65773-9.9956-11.40096-16.10264-.49882-4.09845.1553-8.01079 2.01418-12.04744 1.58848-3.44943 2.72726-4.93047 7.86953-10.23455 6.02595-6.21561 6.85411-7.6989 6.84669-12.26283-.004-2.57284-.1264-3.2956-.78563-4.64673-2.31437-4.74329-9.16976-8.351-18.02707-9.48691-4.54468-.58283-13.14192.59838-20.34589 2.79539-17.44 5.31876-36.52051 19.05892-51.06336 36.77152-19.93043 24.27445-34.79123 57.55132-39.20522 87.78972-1.4952 10.24318-2.0375 24.42378-1.28073 33.49028.73814 8.84368 2.7327 18.6759 5.09577 25.12 1.4457 3.94237 4.47011 9.95568 6.70128 13.32384 2.48944 3.75802 4.71687 6.1857 7.72749 8.42218 10.60835 7.88064 26.68637 10.42304 45.61091 7.21244 12.66803-2.14915 31.02723-8.02204 47.01741-15.04028 2.288-1.00426 5.456-2.32932 7.04-2.94458 1.584-.6153 3.6-1.4599 4.48-1.87693 3.25754-1.54377 14.5265-5.66784 18.4-6.73382 4.45366-1.22563 7.61021-1.60525 10.42432-1.25367 1.57674.19703 2.04979.41437 2.92765 1.34512 1.30678 1.38564 1.57161 2.40077 1.09312 4.18992-.59683 2.23146-2.40717 4.72628-6.40327 8.82436-4.17331 4.27984-9.4111 8.82009-16.52406 14.32348-9.16522 7.09124-16.23357 11.48951-27.83776 17.32205-13.87472 6.97379-21.44314 10.0057-30.99725 12.4176-3.54352.89453-6.87475 1.75978-7.40275 1.92275-1.38781.42839-9.60285 1.81127-14.08 2.37015-8.1953 1.02297-25.29347 1.83321-33.12 1.56944zm-154.8487-52.88631c3.31881-2.0183 11.60521-9.93868 15.26208-14.58796 1.10732-1.40788 2.32201-2.91978 2.69926-3.35978 1.30893-1.52659 5.33696-6.72269 6.7903-8.75939l1.46106-2.04749-1.72202-4.43658c-3.80496-9.80307-6.08128-20.15622-7.55385-34.35654-.35591-3.432-.66435-8.04-.68547-10.24-.0211-2.2-.14055-4.432-.26541-4.96l-.22704-.96-.36784.8c-.20234.44-.87882 2.672-1.5033 4.96-.62451 2.288-1.41456 5.024-1.75568 6.08-1.42397 4.4082-11.1872 38.97619-11.83968 41.92-.39008 1.76-.91155 3.92-1.15881 4.8-.24727.88-.79466 3.184-1.21642 5.12s-1.16266 4.96-1.64643 6.72c-1.61347 5.87011-1.1337 10.42035 1.37497 13.04 1.00231 1.04666 1.06224 1.05347 2.35428.26774zM114.88 372.30749c11.59967-2.69399 21.83286-9.19309 34.74222-22.0649 23.13315-23.06582 41.68818-53.6581 49.5653-81.71991 3.92558-13.98466 5.41004-24.5635 5.41685-38.60268.004-7.83255-.0856-9.48222-.71029-13.11019-1.47432-8.56201-3.90652-13.91796-8.37408-18.44058-3.14916-3.18797-5.98044-4.96145-10.12781-6.34395-3.79496-1.26503-6.07958-1.47747-9.04503-.84107-15.08915 3.23819-31.85941 16.30615-47.20155 36.78103-15.48386 20.66403-30.546644 52.2759-36.781098 77.19155-3.054218 12.206-4.156477 20.51934-4.174326 31.48321-.01197 7.34304.06002 8.49558.71896 11.51181 1.609942 7.36947 4.258668 12.49357 8.850854 17.12249 3.42836 3.45578 6.25156 5.34912 9.83735 6.59728 2.99848 1.04372 4.32389 1.12304 7.28265.43591zm205.96045-.006c12.41641-2.56467 26.83411-12.56787 41.00851-28.45232 4.29837-4.81693 10.52362-12.45943 12.2584-15.04915.58947-.88 1.66816-2.33664 2.39702-3.23696.72887-.90036 2.49479-3.42036 3.92426-5.60001 1.42947-2.17967 2.8696-4.32303 3.20026-4.76303 2.54508-3.38648 10.81436-18.55298 13.78601-25.28462 5.53565-12.53985 8.99843-23.95671 11.02899-36.36276 1.69482-10.35467 1.9561-13.63944 1.9561-24.59262 0-9.01809-.0654-10.24221-.71894-13.46389-2.29831-11.32931-6.87514-18.08072-14.96106-22.06943-4.05843-2.00199-8.42669-2.91449-11.51718-2.40588-10.26343 1.68908-22.57536 9.24578-34.40775 21.11845-12.5064 12.54902-23.02233 27.78565-33.13283 48.00643-11.48892 22.97768-18.01813 42.77771-20.79264 63.05438-.69924 5.11014-.9845 17.63939-.4909 21.56086.81294 6.4586 3.32556 13.13082 6.5442 17.37808 3.38321 4.46439 8.42011 8.31748 12.90302 9.8704 2.59941.90045 3.82283.9514 7.01453.29213z"/><path fill="#441669" d="M578.88 427.30864c-21.85066-1.15421-40.8745-5.78749-58.6247-14.27814-18.08301-8.6498-34.8018-21.90608-48.11536-38.1505-2.56586-3.13072-8.37748-10.86016-9.09316-12.09389l-.59523-1.02611 2.13421-2.94877c1.17382-1.62182 2.2161-2.95382 2.3161-2.96.10003-.006 1.1582 1.43203 2.35152 3.19603 5.39974 7.98224 11.27929 15.177 18.21939 22.29488 18.83277 19.31524 41.94611 33.10896 68.04723 40.60967 8.13472 2.33769 20.05293 4.51344 29.28 5.34521 1.51421.13652-3.37418.14612-5.92.0115zm-500.8-27.14141c-9.249613-1.56921-17.999776-6.92493-24.510912-15.00237-5.684531-7.05196-9.185197-15.55433-10.911587-26.50195-.797767-5.05888-.795648-20.22099.003744-26.66291 2.716077-21.888 9.578726-42.57741 21.513533-64.85866 13.543465-25.28448 30.725068-46.54087 50.545242-62.53253 18.39587-14.8425 34.67519-23.06091 50.59818-25.54386 5.29798-.82614 5.86378-.57903 1.40182.61226-10.61666 2.83449-20.17291 7.28039-30.59638 14.23448-24.06774 16.05696-44.041864 37.59785-59.799 64.48961-8.256419 14.09073-14.388474 27.42998-19.049366 41.4387-5.25218 15.78588-7.549972 28.35728-7.90376 43.24205-.336711 14.16637 1.306598 23.70624 5.652348 32.81347 5.47666 11.47725 14.625088 19.9305 25.616138 23.6696l3.04 1.03421-1.6-.0125c-.88-.007-2.68-.19568-4-.41962zm106.31602.11741c-5.98679-.99731-10.46499-4.0873-12.70236-8.76464-1.54732-3.23475-2.09366-6.11453-2.09366-11.03578 0-7.24265 1.03502-14.07139 3.89713-25.71193l1.63941-6.66768 2.28691-2.77232c1.25781-1.52477 3.70333-4.54103 5.43451-6.70285 1.73118-2.16179 3.19626-3.88189 3.25574-3.8224.0595.0595-1.11421 4.49078-2.6082 9.84733-4.21165 15.10038-5.92363 23.48099-6.51787 31.90672-.89601 12.70451 2.46906 19.75997 11.12197 23.31907l1.8104.74464-1.92-.0298c-1.056-.0163-2.67779-.15606-3.60398-.31037zm100.24398 0c-4.99051-.71914-10.62422-2.95366-15.272-6.05738-4.47682-2.98953-9.93874-8.66163-13.10935-13.61376-2.20774-3.44825-5.59404-11.36153-5.16433-12.06832.55916-.91968 5.01844-6.30582 5.22071-6.30582.12272 0 .40472.828.62666 1.84.74798 3.41053 2.63205 8.85882 4.18448 12.10048 2.39434 4.99971 5.11708 8.80662 9.26198 12.95002 5.3548 5.35283 10.45136 8.5935 16.65185 10.58816l2.72.87497-1.6-.016c-.88-.009-2.464-.14035-3.52-.29251zm105.28-.11898c-3.1569-.58617-5.60733-1.58771-7.75194-3.16832-5.15897-3.80233-7.17612-10.06739-6.4855-20.14307.49808-7.26595 1.512-13.04128 4.04941-23.06518l1.45056-5.73031 4.20873-5.16108c2.31482-2.8386 4.71274-5.83552 5.32874-6.65981 1.0809-1.44643 1.72752-1.94787 1.4424-1.11853-.3953 1.14963-4.72765 16.93494-5.55498 20.24-2.54697 10.17459-3.66496 17.79613-3.66134 24.96.004 6.96323.8912 10.26954 3.8464 14.32688 1.38784 1.90541 4.49302 4.14826 7.16771 5.17715l2.03981.78467-1.92-.0131c-1.056-.007-2.928-.20041-4.16-.42918zm219.04045-3.08704c-6.7265-.77846-15.55162-4.16016-22.07923-8.46057-2.72535-1.79546-3.19408-2.39015-1.01258-1.28471 14.00166 7.09517 34.42758 7.11348 57.01136.0511 1.32-.4128 3.768-1.14317 5.44-1.62307 6.23728-1.79028 15.25203-5.25872 33.44-12.86615 18.72867-7.8336 24.4672-9.55011 31.44-9.40432 1.40874.0294 1.9623.66845.57907.66845-1.31312 0-5.14899 1.53114-12.01907 4.79754-26.77856 12.73196-39.93971 18.28876-51.5769 21.77648-18.96838 5.68489-30.96832 7.532-41.22265 6.34524zM540.96 392.14378c-2.37171-.65668-8.38803-2.61392-10.4201-3.38989-3.02076-1.15354-4.03811-1.96714-7.19062-5.75059-8.69885-10.43981-13.7656-22.64887-16.05354-38.6833-.80441-5.63741-.80166-22.44794.005-29.12 2.22109-18.3768 7.0608-34.77873 15.27389-51.76402 16.77434-34.69047 42.36029-62.09258 75.90035-81.28797 18.452-10.56031 36.03872-16.5875 54.8033-18.78178 6.71907-.78571 7.7656-.55647 2.17261.47591-17.37837 3.20779-33.6488 9.5493-50.5912 19.71825-29.92669 17.96221-52.59479 41.67278-69.17818 72.35962-10.52464 19.47539-16.80515 39.36816-19.06931 60.39999-.77446 7.19398-.78467 20.47178-.0205 26.72 2.36403 19.33002 9.09885 33.62301 21.62259 45.88864 1.77943 1.74275 3.19722 3.19904 3.15066 3.23619-.0466.0371-.22871.0275-.40471-.0211zm-319.92-16.19572c-.484-.17676-.87544-.4174-.86987-.53472.006-.11734.97758-.85648 2.16-1.64256 2.73987-1.82147 10.23173-9.2656 14.38316-14.29155 3.33261-4.03465 10.30675-13.24441 10.87359-14.35923.17898-.352.4153-2.81606.52515-5.47568.60782-14.71597 4.4989-31.97437 10.92227-48.44432 6.43741-16.50594 16.68141-35.33501 26.985-49.6 21.58166-29.87912 51.91907-53.84193 76.79705-60.66023 4.94109-1.3542 8.15975-1.97151 11.43664-2.19343 2.17178-.14708 2.35843-.123 1.26701.16347-13.26986 3.48293-21.36166 7.11326-33.28 14.93084-18.89747 12.39536-36.71514 29.9974-50.61188 49.99935-21.20381 30.5192-34.78182 66.0154-36.1099 94.4-.31916 6.8215-.0758 6.1528-4.28493 11.77414-6.08714 8.12941-9.44393 12.09066-14.56689 17.18996-7.49465 7.46-12.09452 10.03392-15.6264 8.74396zm206.08.0182c-.94486-.3646-1.12966-.76195-.47181-1.0144.22451-.0862 1.84451-1.30364 3.6-2.7055 4.44477-3.54944 7.60957-6.91162 14.96611-15.89946 2.8024-3.4238 7.58298-10.00496 7.58426-10.44076 0-.27165-.64096-2.09207-1.42611-4.04541-3.63779-9.05018-6.16317-20.38976-7.50525-33.70071-.81738-8.1067-1.20752-18.38606-.7095-18.69384.19926-.12316.3623-.0764.3623.10396 0 .18033.22138 1.95283.49197 3.93888 2.15321 15.80497 6.87091 31.36672 13.85165 45.691 1.32944 2.728 2.52924 5.21165 2.66617 5.51924.45312 1.0176-10.56045 15.14272-16.99641 21.79833-7.065 7.30605-13.04487 10.74848-16.41338 9.44867zm-308.52388-4.4704c6.928-2.22908 14.24475-6.38585 21.72388-12.34166 4.79232-3.81622 14.79646-13.89242 19.97035-20.11418 28.07124-33.7565 42.76961-67.84344 44.4912-103.17943.91376-18.75521-1.88414-30.32093-9.10155-37.62314-2.91642-2.95068-5.52829-4.64947-9.44-6.13985l-2.72-1.03634 1.76-.006c2.30154-.008 7.04028.98134 9.54764 1.99411 9.06983 3.66347 14.17081 10.93987 16.59735 23.67562.82127 4.31044.81694 21.77612-.007 28.39545-3.55701 28.57486-15.06895 55.79091-34.78618 82.24-21.6588 29.05356-41.35552 43.98342-59.67177 45.23049l-2.24.15251 3.87612-1.24716zm205.01482.31437c16.20762-4.87021 32.44967-18.6847 50.94445-43.33021 8.35853-11.13829 14.39328-20.90404 20.16989-32.64 8.72842-17.733 13.25053-33.10132 15.4063-52.35838.79543-7.10513.7824-22.22987-.023-26.68162-.8158-4.50949-1.92688-8.21172-3.3862-11.28301-3.41546-7.18819-8.06992-11.17467-16.64244-14.25404-1.05344-.37841 2.64567-.19339 5.26468.26333 8.84825 1.54301 15.7902 7.02748 19.23574 15.19716 1.44992 3.43791 2.63408 8.36475 3.2295 13.43656.61776 5.26247.43511 18.02449-.3504 24.48-3.57568 29.38562-15.08992 56.42886-35.6967 83.84-21.37142 28.42829-40.73373 42.9345-58.88282 44.11495l-2.4.15609 3.13095-.94083zM729.92 368.45238c0-.38755 2.53709-3.62483 4.61283-5.88582 1.07095-1.16656 4.89917-5.21814 8.50717-9.00352 6.67053-6.99846 9.53629-10.63139 10.6049-13.44371 1.11891-2.94477.64819-4.68672-1.55466-5.75312-1.13968-.55168-1.72682-.64135-3.05011-.46583-3.80845.50522-9.48826 3.43722-19.12013 9.87015-5.19859 3.472-8.31386 5.19152-8.99453 4.96464-.19056-.0635 2.29527-1.85655 5.52403-3.98448 10.18548-6.7128 17.00676-10.90013 31.9505-19.61325 7.2087-4.20314 10.56909-7.61196 13.12966-13.31896 1.27101-2.83288 1.23469-3.18068-.40966-3.92004-.748-.33633-1.72-1.00281-2.16-1.48107-.70861-.77021-.80205-1.15931-.81805-3.40552-.01-1.39478-.16739-2.68529-.34992-2.86781-.33645-.33647-1.33641-.25326-10.19203.84818-5.63491.70086-12.90112.91049-16.78195.48416-3.18394-.34977-9.63891-2.05112-9.59936-2.53012.0237-.28721 24.93283-12.70257 29.42131-14.66435 7.5649-3.30641 14.29664-4.97636 20.32-5.04082 5.85421-.0626 6.57053.53868 7.18278 6.02963.36797 3.29997 1.09962 5.08187 2.2345 5.44207 1.50538.47778 5.18749-1.40656 10.58272-5.41574 6.93341-5.15219 9.13376-5.94703 15.76291-5.69407 2.4184.0923 4.39709.20753 4.39709.25611 0 .0486-.34595.78416-.76874 1.63462-.42281.85046-1.14886 2.98629-1.61347 4.74629-1.07181 4.0604-1.87331 5.7748-4.18893 8.96-4.39747 6.04889-4.30886 5.8612-4.30886 9.12624 0 8.24568-2.94234 19.00691-7.9087 28.92525-2.51556 5.02377-7.06976 12.41629-12.66212 20.55337-5.04195 7.33626-7.95587 11.07613-9.54588 12.25168l-.9233.68263v-2.07319c0-2.61436.76333-8.65817 1.6199-12.82598.93748-4.5615 2.00272-7.93395 4.29588-13.6 2.4816-6.13181 2.9536-7.59146 3.33241-10.30557.44451-3.18496.34515-3.35971-1.99622-3.51021-1.17872-.0757-2.58551-.42435-3.49715-.86656l-1.52519-.73977-1.87437 1.9455c-2.34409 2.43309-4.84233 3.66855-8.52662 4.21667l-2.69894.40154-7.12484 7.5376c-8.71052 9.2151-28.60198 29.55594-30.1542 30.83539-.62186.51261-1.13066.82659-1.13066.69779zm-33.76-124.52183c-2.47283-.34401-6.32138-1.52632-8.716-2.67762-3.29674-1.58502-6.18618-4.22549-8.60973-7.86782-4.14307-6.22668-4.69862-12.65908-1.70201-19.70687 1.52681-3.59096 2.68803-5.19126 7.02275-9.67824 6.32957-6.55187 7.34198-8.0238 7.99469-11.62324 1.25286-6.90909-3.7944-12.56446-13.5897-15.22702l-2.88-.78284 2.56-.0216c5.63466-.0475 13.31792 1.78679 17.12371 4.08801 2.48922 1.50512 4.59459 3.59109 5.50282 5.45208.94105 1.92823 1.1464 5.4008.45913 7.76489-.73606 2.53188-1.89248 4.0709-7.3472 9.77783-4.24812 4.44454-5.12598 5.54551-6.42086 8.05258-2.02291 3.91673-2.78768 6.99844-2.78918 11.23927-.003 5.86502 1.4583 9.462 5.45772 13.44233 2.60164 2.58919 5.11879 4.05663 8.5049 4.9581 2.70227.71942 8.26224.66772 11.42896-.10627 1.364-.33338 2.48-.54731 2.48-.4754 0 .44624-5.68675 2.74046-7.78816 3.14199-2.32848.44492-6.43997.56309-8.69184.24981zM221.63876 208.64c-.24835-.72562-2.64886-7.06155-3.1003-8.18295-.364-.9042-.19927-1.54383 2.05604-7.98305 1.34846-3.85005 2.59426-7.08817 2.76843-7.19581.42735-.26411 6.08703-1.0549 6.26637-.87555.15083.15082-7.10762 23.4207-7.56023 24.23736-.23647.42667-.28428.42667-.43031 0zm205.58751-1.04c-.21728-.748-1.04467-2.97989-1.83862-4.95975l-1.44362-3.59976 2.13687-6.64024c1.17526-3.65214 2.3463-6.80485 2.60233-7.00602.46563-.36591 6.71837-1.2993 6.97626-1.04139.0752.0752-1.36899 4.88654-3.20928 10.69192-1.84032 5.80538-3.56867 11.31124-3.8408 12.23524-.27216.924-.60583 1.68-.74147 1.68-.13565 0-.42439-.612-.64167-1.36z"/></svg>