<?xml version="1.0" encoding="UTF-8" standalone="no"?>
<svg
   xmlns:dc="http://purl.org/dc/elements/1.1/"
   xmlns:cc="http://creativecommons.org/ns#"
   xmlns:rdf="http://www.w3.org/1999/02/22-rdf-syntax-ns#"
   xmlns:svg="http://www.w3.org/2000/svg"
   xmlns="http://www.w3.org/2000/svg"
   xmlns:xlink="http://www.w3.org/1999/xlink"
   xmlns:sodipodi="http://sodipodi.sourceforge.net/DTD/sodipodi-0.dtd"
   xmlns:inkscape="http://www.inkscape.org/namespaces/inkscape"
   width="50"
   height="45"
   version="1.1"
   id="svg885"
   sodipodi:docname="aac_bird.svg"
   inkscape:version="0.92.3 (2405546, 2018-03-11)">
  <metadata
     id="metadata889">
    <rdf:RDF>
      <cc:Work
         rdf:about="">
        <dc:format>image/svg+xml</dc:format>
        <dc:type
           rdf:resource="http://purl.org/dc/dcmitype/StillImage" />
        <dc:title></dc:title>
      </cc:Work>
    </rdf:RDF>
  </metadata>
  <sodipodi:namedview
     pagecolor="#ffffff"
     bordercolor="#666666"
     borderopacity="1"
     objecttolerance="10"
     gridtolerance="10"
     guidetolerance="10"
     inkscape:pageopacity="0"
     inkscape:pageshadow="2"
     inkscape:window-width="1920"
     inkscape:window-height="1001"
     id="namedview887"
     showgrid="false"
     inkscape:zoom="4.3283506"
     inkscape:cx="89.725966"
     inkscape:cy="54.136233"
     inkscape:window-x="-9"
     inkscape:window-y="-9"
     inkscape:window-maximized="1"
     inkscape:current-layer="svg885" />
  <defs
     id="defs861">
    <linearGradient
       id="a">
      <stop
         offset="0"
         stop-color="#fff"
         stop-opacity="0"
         id="stop853" />
      <stop
         offset="0.77229363"
         stop-color="#e4edb2"
         stop-opacity=".49803922"
         id="stop855" />
      <stop
         offset="1"
         stop-color="#bfd73e"
         id="stop857" />
    </linearGradient>
    <radialGradient
       id="b"
       cx="585.16827"
       cy="262.41879"
       r="142.11681"
       fx="585.16827"
       fy="262.41879"
       gradientTransform="matrix(0.91509,-0.00763,0.00493,0.92407,49.201632,19.764039)"
       gradientUnits="userSpaceOnUse"
       spreadMethod="pad"
       xlink:href="#a" />
  </defs>
  <path
     d="m 4.9682335,44.362627 c 0,-0.189275 1.239088,-1.770328 2.2528572,-2.874572 0.52304,-0.569736 2.3927028,-2.548484 4.1548123,-4.397224 3.257816,-3.417974 4.657423,-5.192258 5.17932,-6.565766 0.546464,-1.438194 0.316569,-2.288944 -0.759279,-2.809762 -0.556608,-0.269435 -0.84336,-0.313229 -1.489642,-0.227507 -1.860007,0.246745 -4.6339655,1.678702 -9.3380685,4.820476 -2.5389362,1.695689 -4.06040193,2.535484 -4.39283383,2.424678 -0.0930643,-0.03101 1.12098593,-0.906719 2.69787853,-1.945977 4.97448,-3.27846 8.3059208,-5.323509 15.6042848,-9.578904 3.520653,-2.052769 5.161832,-3.7176 6.412387,-6.504839 0.620748,-1.383548 0.60301,-1.55341 -0.200073,-1.914505 -0.365316,-0.16426 -0.84003,-0.489762 -1.054922,-0.72334 -0.346077,-0.376162 -0.391712,-0.566194 -0.399527,-1.663219 -0.0048,-0.681196 -0.08175,-1.311468 -0.170897,-1.400609 -0.164318,-0.164327 -0.652688,-0.123689 -4.977679,0.414242 -2.75203,0.342294 -6.30077,0.444674 -8.196126,0.23646 C 8.7357232,11.481435 5.5831841,10.650514 5.6024996,10.416575 5.6140706,10.276304 17.779429,4.212774 19.971556,3.2546618 c 3.694617,-1.6148153 6.982327,-2.43040098 9.924072,-2.46188298 2.859134,-0.030574 3.208977,0.26308588 3.507993,2.94480798 0.179714,1.6116704 0.537044,2.4819304 1.091306,2.6578494 0.735213,0.233342 2.533516,-0.686949 5.168489,-2.6449905 3.386204,-2.5162747 4.460832,-2.90446618 7.698438,-2.78092368 1.181121,0.045077 2.147492,0.10135348 2.147492,0.12508188 0,0.02374 -0.168958,0.3829756 -0.375444,0.7983308 C 48.927406,2.3082899 48.572811,3.3514072 48.345901,4.2109729 47.82244,6.1940282 47.430996,7.0313242 46.300071,8.5869412 44.152394,11.541155 44.19567,11.44949 44.19567,13.0441 c 0,4.027103 -1.437007,9.282773 -3.862525,14.126786 -1.228573,2.453555 -3.452797,6.063984 -6.184045,10.038048 -2.462436,3.582951 -3.885563,5.409464 -4.662107,5.98359 l -0.45093,0.333389 v -1.012524 c 0,-1.276826 0.372802,-4.228558 0.791141,-6.264072 0.457856,-2.227789 0.978108,-3.874858 2.098063,-6.642097 1.211988,-2.994711 1.442507,-3.707588 1.627514,-5.03313 0.217094,-1.555501 0.168567,-1.640847 -0.974933,-1.71435 -0.575674,-0.03697 -1.262735,-0.207248 -1.707971,-0.423219 l -0.744886,-0.361295 -0.915423,0.950161 c -1.144829,1.188296 -2.364942,1.791681 -4.164311,2.059377 l -1.318134,0.196108 -3.479696,3.681284 C 15.993302,33.462713 6.2785227,43.396964 5.5204356,44.021834 5.216726,44.272187 4.9682335,44.425531 4.9682335,44.362627 Z"
     id="path883"
     inkscape:connector-curvature="0"
     style="fill:#441669;stroke-width:0.4883894"
     sodipodi:nodetypes="scscccccsccccccsscccccscscccsccccssccccccccccs" />
</svg>
